<svg width="49" height="48" viewBox="0 0 49 48" fill="none" xmlns="http://www.w3.org/2000/svg">
<path fill-rule="evenodd" clip-rule="evenodd" d="M41.25 17C41.25 21.5563 37.5563 25.25 33 25.25C28.4437 25.25 24.75 21.5563 24.75 17C24.75 12.4437 28.4437 8.75 33 8.75C37.5563 8.75 41.25 12.4437 41.25 17Z" stroke="#231815" stroke-width="2"/>
<g clip-path="url(#clip0_1_231)">
<line x1="47" y1="17.25" x2="44.5" y2="17.25" stroke="#F25022" stroke-width="2" stroke-linecap="round" stroke-linejoin="round"/>
</g>
<g clip-path="url(#clip1_1_231)">
<line x1="21.5" y1="17.25" x2="19" y2="17.25" stroke="#F25022" stroke-width="2" stroke-linecap="round" stroke-linejoin="round"/>
</g>
<g clip-path="url(#clip2_1_231)">
<line x1="47" y1="17.25" x2="44.5" y2="17.25" stroke="#231815" stroke-width="2" stroke-linecap="round" stroke-linejoin="round"/>
</g>
<g clip-path="url(#clip3_1_231)">
<line x1="21.5" y1="17.25" x2="19" y2="17.25" stroke="#231815" stroke-width="2" stroke-linecap="round" stroke-linejoin="round"/>
</g>
<g clip-path="url(#clip4_1_231)">
<line x1="44.9994" y1="24.2165" x2="42.8343" y2="22.9665" stroke="#231815" stroke-width="2" stroke-linecap="round" stroke-linejoin="round"/>
</g>
<g clip-path="url(#clip5_1_231)">
<line x1="39.7835" y1="29.2494" x2="38.5335" y2="27.0843" stroke="#231815" stroke-width="2" stroke-linecap="round" stroke-linejoin="round"/>
</g>
<g clip-path="url(#clip6_1_231)">
<line x1="27.0335" y1="7.1657" x2="25.7835" y2="5.00063" stroke="#231815" stroke-width="2" stroke-linecap="round" stroke-linejoin="round"/>
</g>
<g clip-path="url(#clip7_1_231)">
<line x1="32.75" y1="31" x2="32.75" y2="28.5" stroke="#231815" stroke-width="2" stroke-linecap="round" stroke-linejoin="round"/>
</g>
<g clip-path="url(#clip8_1_231)">
<line x1="32.75" y1="5.5" x2="32.75" y2="3" stroke="#231815" stroke-width="2" stroke-linecap="round" stroke-linejoin="round"/>
</g>
<g clip-path="url(#clip9_1_231)">
<line x1="25.7835" y1="28.9994" x2="27.0335" y2="26.8343" stroke="#231815" stroke-width="2" stroke-linecap="round" stroke-linejoin="round"/>
</g>
<g clip-path="url(#clip10_1_231)">
<line x1="38.5335" y1="6.9157" x2="39.7835" y2="4.75063" stroke="#231815" stroke-width="2" stroke-linecap="round" stroke-linejoin="round"/>
</g>
<g clip-path="url(#clip11_1_231)">
<line x1="20.7506" y1="23.7835" x2="22.9157" y2="22.5335" stroke="#231815" stroke-width="2" stroke-linecap="round" stroke-linejoin="round"/>
</g>
<g clip-path="url(#clip12_1_231)">
<line x1="42.8343" y1="11.0335" x2="44.9993" y2="9.78349" stroke="#231815" stroke-width="2" stroke-linecap="round" stroke-linejoin="round"/>
</g>
<path d="M40.5 17C40.5 21.1421 37.1421 24.5 33 24.5C28.8579 24.5 25.5 21.1421 25.5 17C25.5 12.8579 28.8579 9.5 33 9.5C37.1421 9.5 40.5 12.8579 40.5 17Z" fill="#FFB900"/>
<path fill-rule="evenodd" clip-rule="evenodd" d="M33.8127 21.0641C33.8127 21.0641 33.997 22 34.0599 22.009C37.4537 22.4929 40 24.4725 40 28C40 31.866 36.866 35 33 35H15C11.134 35 8 31.866 8 28C8 24.4725 10.6092 21.5544 14.003 21.0705C14.0659 21.0615 14.1275 21.0596 14.1873 21.0641C15.0889 16.4677 19.1395 13 24 13C28.8605 13 32.9111 16.4677 33.8127 21.0641Z" fill="#F3F3F3"/>
<path d="M15.5294 35C11.371 35 8 31.7168 8 27.6667C8 24.1291 10.5718 21.1766 13.9938 20.486C15.1702 16.1758 19.2043 13 24 13C29.4215 13 33.8697 17.0587 34.3161 22.2266C37.5268 22.6559 40 25.3383 40 28.5833C40 32.1272 37.0503 35 33.4118 35H15.5294Z" stroke="#231815" stroke-width="2" stroke-linecap="round" stroke-linejoin="round"/>
<defs>
<clipPath id="clip0_1_231">
<rect x="42.75" y="15.5" width="6" height="3" rx="1.5" fill="white"/>
</clipPath>
<clipPath id="clip1_1_231">
<rect x="17.25" y="15.5" width="6" height="3" rx="1.5" fill="white"/>
</clipPath>
<clipPath id="clip2_1_231">
<rect x="42.75" y="15.5" width="6" height="3" rx="1.5" fill="white"/>
</clipPath>
<clipPath id="clip3_1_231">
<rect x="17.25" y="15.5" width="6" height="3" rx="1.5" fill="white"/>
</clipPath>
<clipPath id="clip4_1_231">
<rect x="42.1937" y="20.576" width="6" height="3" rx="1.5" transform="rotate(30 42.1937 20.576)" fill="white"/>
</clipPath>
<clipPath id="clip5_1_231">
<rect x="39.174" y="24.6938" width="6" height="3" rx="1.5" transform="rotate(60 39.174 24.6938)" fill="white"/>
</clipPath>
<clipPath id="clip6_1_231">
<rect x="26.424" y="2.61009" width="6" height="3" rx="1.5" transform="rotate(60 26.424 2.61009)" fill="white"/>
</clipPath>
<clipPath id="clip7_1_231">
<rect x="34.5" y="26.75" width="6" height="3" rx="1.5" transform="rotate(90 34.5 26.75)" fill="white"/>
</clipPath>
<clipPath id="clip8_1_231">
<rect x="34.5" y="1.25" width="6" height="3" rx="1.5" transform="rotate(90 34.5 1.25)" fill="white"/>
</clipPath>
<clipPath id="clip9_1_231">
<rect x="29.424" y="26.1938" width="6" height="3" rx="1.5" transform="rotate(120 29.424 26.1938)" fill="white"/>
</clipPath>
<clipPath id="clip10_1_231">
<rect x="42.174" y="4.11009" width="6" height="3" rx="1.5" transform="rotate(120 42.174 4.11009)" fill="white"/>
</clipPath>
<clipPath id="clip11_1_231">
<rect x="25.3063" y="23.174" width="6" height="3" rx="1.5" transform="rotate(150 25.3063 23.174)" fill="white"/>
</clipPath>
<clipPath id="clip12_1_231">
<rect x="47.3899" y="10.424" width="6" height="3" rx="1.5" transform="rotate(150 47.3899 10.424)" fill="white"/>
</clipPath>
</defs>
</svg>
